<svg width="1024" height="753" viewBox="0 0 1024 753" fill="none" xmlns="http://www.w3.org/2000/svg">
<g clip-path="url(#clip0_175_1867)">
<rect width="1024" height="753" fill="#121214"/>
<g opacity="0.2" filter="url(#filter0_f_175_1867)">
<ellipse cx="502.5" cy="59.8071" rx="275.5" ry="159.807" fill="#35875D"/>
</g>
<path d="M305.494 167.563C306.108 167.563 306.573 167.851 306.889 168.426C307.211 168.996 307.371 169.824 307.371 170.912C307.371 172 307.211 172.832 306.889 173.408C306.573 173.984 306.108 174.271 305.494 174.271C304.885 174.271 304.42 173.984 304.098 173.408C303.777 172.832 303.616 172 303.616 170.912C303.616 169.831 303.777 169.002 304.098 168.426C304.42 167.851 304.885 167.563 305.494 167.563ZM304.228 170.912C304.228 171.684 304.291 172.288 304.417 172.725L306.329 168.521C306.128 168.224 305.85 168.075 305.494 168.075C305.098 168.075 304.788 168.309 304.564 168.777C304.34 169.239 304.228 169.951 304.228 170.912ZM305.494 173.75C305.896 173.75 306.209 173.519 306.433 173.057C306.657 172.589 306.769 171.874 306.769 170.912C306.769 170.096 306.697 169.464 306.553 169.015L304.641 173.256C304.848 173.585 305.132 173.75 305.494 173.75Z" fill="url(#paint0_linear_175_1867)" fill-opacity="0.6"/>
<path d="M306.011 184.518H307.277V185.021H303.995V184.518H305.459V179.185L304.064 180.106L303.823 179.679L305.545 178.502H306.011V184.518Z" fill="url(#paint1_linear_175_1867)" fill-opacity="0.6"/>
<path d="M305.494 189.252C306.108 189.252 306.573 189.54 306.889 190.115C307.211 190.685 307.371 191.513 307.371 192.601C307.371 193.689 307.211 194.521 306.889 195.097C306.573 195.673 306.108 195.961 305.494 195.961C304.885 195.961 304.42 195.673 304.098 195.097C303.777 194.521 303.616 193.689 303.616 192.601C303.616 191.52 303.777 190.691 304.098 190.115C304.42 189.54 304.885 189.252 305.494 189.252ZM304.228 192.601C304.228 193.373 304.291 193.977 304.417 194.414L306.329 190.21C306.128 189.913 305.85 189.764 305.494 189.764C305.098 189.764 304.788 189.998 304.564 190.466C304.34 190.928 304.228 191.64 304.228 192.601ZM305.494 195.439C305.896 195.439 306.209 195.208 306.433 194.746C306.657 194.278 306.769 193.563 306.769 192.601C306.769 191.785 306.697 191.153 306.553 190.704L304.641 194.945C304.848 195.274 305.132 195.439 305.494 195.439Z" fill="url(#paint2_linear_175_1867)" fill-opacity="0.6"/>
<path d="M306.011 206.207H307.277V206.71H303.995V206.207H305.459V200.874L304.064 201.795L303.823 201.368L305.545 200.191H306.011V206.207Z" fill="url(#paint3_linear_175_1867)" fill-opacity="0.6"/>
<path d="M306.011 217.052H307.277V217.555H303.995V217.052H305.459V211.719L304.064 212.639L303.823 212.212L305.545 211.036H306.011V217.052Z" fill="url(#paint4_linear_175_1867)" fill-opacity="0.6"/>
<path d="M305.494 221.785C306.108 221.785 306.573 222.073 306.889 222.649C307.211 223.218 307.371 224.047 307.371 225.135C307.371 226.223 307.211 227.055 306.889 227.631C306.573 228.206 306.108 228.494 305.494 228.494C304.885 228.494 304.42 228.206 304.098 227.631C303.777 227.055 303.616 226.223 303.616 225.135C303.616 224.053 303.777 223.225 304.098 222.649C304.42 222.073 304.885 221.785 305.494 221.785ZM304.228 225.135C304.228 225.907 304.291 226.511 304.417 226.947L306.329 222.744C306.128 222.446 305.85 222.298 305.494 222.298C305.098 222.298 304.788 222.532 304.564 223C304.34 223.462 304.228 224.173 304.228 225.135ZM305.494 227.972C305.896 227.972 306.209 227.741 306.433 227.28C306.657 226.811 306.769 226.097 306.769 225.135C306.769 224.319 306.697 223.686 306.553 223.237L304.641 227.479C304.848 227.808 305.132 227.972 305.494 227.972Z" fill="url(#paint5_linear_175_1867)" fill-opacity="0.6"/>
<path d="M306.011 238.741H307.277V239.244H303.995V238.741H305.459V233.408L304.064 234.328L303.823 233.901L305.545 232.725H306.011V238.741Z" fill="url(#paint6_linear_175_1867)" fill-opacity="0.6"/>
<path d="M305.494 243.474C306.108 243.474 306.573 243.762 306.889 244.338C307.211 244.907 307.371 245.736 307.371 246.824C307.371 247.912 307.211 248.744 306.889 249.32C306.573 249.895 306.108 250.183 305.494 250.183C304.885 250.183 304.42 249.895 304.098 249.32C303.777 248.744 303.616 247.912 303.616 246.824C303.616 245.742 303.777 244.914 304.098 244.338C304.42 243.762 304.885 243.474 305.494 243.474ZM304.228 246.824C304.228 247.596 304.291 248.2 304.417 248.636L306.329 244.433C306.128 244.136 305.85 243.987 305.494 243.987C305.098 243.987 304.788 244.221 304.564 244.689C304.34 245.151 304.228 245.863 304.228 246.824ZM305.494 249.661C305.896 249.661 306.209 249.43 306.433 248.969C306.657 248.5 306.769 247.786 306.769 246.824C306.769 246.008 306.697 245.375 306.553 244.926L304.641 249.168C304.848 249.497 305.132 249.661 305.494 249.661Z" fill="url(#paint7_linear_175_1867)" fill-opacity="0.6"/>
<path d="M305.494 254.319C306.108 254.319 306.573 254.607 306.889 255.183C307.211 255.752 307.371 256.581 307.371 257.669C307.371 258.757 307.211 259.589 306.889 260.164C306.573 260.74 306.108 261.028 305.494 261.028C304.885 261.028 304.42 260.74 304.098 260.164C303.777 259.589 303.616 258.757 303.616 257.669C303.616 256.587 303.777 255.758 304.098 255.183C304.42 254.607 304.885 254.319 305.494 254.319ZM304.228 257.669C304.228 258.44 304.291 259.045 304.417 259.481L306.329 255.277C306.128 254.98 305.85 254.831 305.494 254.831C305.098 254.831 304.788 255.065 304.564 255.534C304.34 255.995 304.228 256.707 304.228 257.669ZM305.494 260.506C305.896 260.506 306.209 260.275 306.433 259.813C306.657 259.345 306.769 258.63 306.769 257.669C306.769 256.853 306.697 256.22 306.553 255.771L304.641 260.012C304.848 260.341 305.132 260.506 305.494 260.506Z" fill="url(#paint8_linear_175_1867)" fill-opacity="0.6"/>
<path d="M306.011 271.274H307.277V271.777H303.995V271.274H305.459V265.942L304.064 266.862L303.823 266.435L305.545 265.258H306.011V271.274Z" fill="url(#paint9_linear_175_1867)" fill-opacity="0.6"/>
<path d="M305.494 276.008C306.108 276.008 306.573 276.296 306.889 276.872C307.211 277.441 307.371 278.27 307.371 279.358C307.371 280.446 307.211 281.278 306.889 281.853C306.573 282.429 306.108 282.717 305.494 282.717C304.885 282.717 304.42 282.429 304.098 281.853C303.777 281.278 303.616 280.446 303.616 279.358C303.616 278.276 303.777 277.447 304.098 276.872C304.42 276.296 304.885 276.008 305.494 276.008ZM304.228 279.358C304.228 280.129 304.291 280.734 304.417 281.17L306.329 276.966C306.128 276.669 305.85 276.52 305.494 276.52C305.098 276.52 304.788 276.755 304.564 277.223C304.34 277.684 304.228 278.396 304.228 279.358ZM305.494 282.195C305.896 282.195 306.209 281.964 306.433 281.502C306.657 281.034 306.769 280.319 306.769 279.358C306.769 278.542 306.697 277.909 306.553 277.46L304.641 281.701C304.848 282.03 305.132 282.195 305.494 282.195Z" fill="url(#paint10_linear_175_1867)" fill-opacity="0.6"/>
<path d="M306.011 292.964H307.277V293.466H303.995V292.964H305.459V287.631L304.064 288.551L303.823 288.124L305.545 286.948H306.011V292.964Z" fill="url(#paint11_linear_175_1867)" fill-opacity="0.6"/>
<path d="M306.011 303.808H307.277V304.311H303.995V303.808H305.459V298.475L304.064 299.396L303.823 298.969L305.545 297.792H306.011V303.808Z" fill="url(#paint12_linear_175_1867)" fill-opacity="0.6"/>
<path d="M321.49 189.252C322.104 189.252 322.569 189.54 322.885 190.115C323.207 190.685 323.367 191.513 323.367 192.601C323.367 193.689 323.207 194.521 322.885 195.097C322.569 195.673 322.104 195.961 321.49 195.961C320.881 195.961 320.416 195.673 320.094 195.097C319.773 194.521 319.612 193.689 319.612 192.601C319.612 191.52 319.773 190.691 320.094 190.115C320.416 189.54 320.881 189.252 321.49 189.252ZM320.224 192.601C320.224 193.373 320.287 193.977 320.413 194.414L322.325 190.21C322.124 189.913 321.846 189.764 321.49 189.764C321.094 189.764 320.783 189.998 320.56 190.466C320.336 190.928 320.224 191.64 320.224 192.601ZM321.49 195.439C321.892 195.439 322.205 195.208 322.429 194.746C322.653 194.278 322.764 193.563 322.764 192.601C322.764 191.785 322.693 191.153 322.549 190.704L320.637 194.945C320.844 195.274 321.128 195.439 321.49 195.439Z" fill="url(#paint13_linear_175_1867)" fill-opacity="0.6"/>
<path d="M322.007 206.207H323.273V206.71H319.991V206.207H321.455V200.874L320.06 201.795L319.819 201.368L321.541 200.191H322.007V206.207Z" fill="url(#paint14_linear_175_1867)" fill-opacity="0.6"/>
<path d="M321.49 210.941C322.104 210.941 322.569 211.229 322.885 211.804C323.207 212.374 323.367 213.202 323.367 214.29C323.367 215.379 323.207 216.21 322.885 216.786C322.569 217.362 322.104 217.65 321.49 217.65C320.881 217.65 320.416 217.362 320.094 216.786C319.773 216.21 319.612 215.379 319.612 214.29C319.612 213.209 319.773 212.38 320.094 211.804C320.416 211.229 320.881 210.941 321.49 210.941ZM320.224 214.29C320.224 215.062 320.287 215.666 320.413 216.103L322.325 211.899C322.124 211.602 321.846 211.453 321.49 211.453C321.094 211.453 320.783 211.687 320.56 212.155C320.336 212.617 320.224 213.329 320.224 214.29ZM321.49 217.128C321.892 217.128 322.205 216.897 322.429 216.435C322.653 215.967 322.764 215.252 322.764 214.29C322.764 213.474 322.693 212.842 322.549 212.393L320.637 216.634C320.844 216.963 321.128 217.128 321.49 217.128Z" fill="url(#paint15_linear_175_1867)" fill-opacity="0.6"/>
<path d="M321.49 221.785C322.104 221.785 322.569 222.073 322.885 222.649C323.207 223.218 323.367 224.047 323.367 225.135C323.367 226.223 323.207 227.055 322.885 227.631C322.569 228.206 322.104 228.494 321.49 228.494C320.881 228.494 320.416 228.206 320.094 227.631C319.773 227.055 319.612 226.223 319.612 225.135C319.612 224.053 319.773 223.225 320.094 222.649C320.416 222.073 320.881 221.785 321.49 221.785ZM320.224 225.135C320.224 225.907 320.287 226.511 320.413 226.947L322.325 222.744C322.124 222.446 321.846 222.298 321.49 222.298C321.094 222.298 320.783 222.532 320.56 223C320.336 223.462 320.224 224.173 320.224 225.135ZM321.49 227.972C321.892 227.972 322.205 227.741 322.429 227.28C322.653 226.811 322.764 226.097 322.764 225.135C322.764 224.319 322.693 223.686 322.549 223.237L320.637 227.479C320.844 227.808 321.128 227.972 321.49 227.972Z" fill="url(#paint16_linear_175_1867)" fill-opacity="0.6"/>
<path d="M322.007 238.741H323.273V239.244H319.991V238.741H321.455V233.408L320.06 234.328L319.819 233.901L321.541 232.725H322.007V238.741Z" fill="url(#paint17_linear_175_1867)" fill-opacity="0.6"/>
<path d="M321.49 243.474C322.104 243.474 322.569 243.762 322.885 244.338C323.207 244.907 323.367 245.736 323.367 246.824C323.367 247.912 323.207 248.744 322.885 249.32C322.569 249.895 322.104 250.183 321.49 250.183C320.881 250.183 320.416 249.895 320.094 249.32C319.773 248.744 319.612 247.912 319.612 246.824C319.612 245.742 319.773 244.914 320.094 244.338C320.416 243.762 320.881 243.474 321.49 243.474ZM320.224 246.824C320.224 247.596 320.287 248.2 320.413 248.636L322.325 244.433C322.124 244.136 321.846 243.987 321.49 243.987C321.094 243.987 320.783 244.221 320.56 244.689C320.336 245.151 320.224 245.863 320.224 246.824ZM321.49 249.661C321.892 249.661 322.205 249.43 322.429 248.969C322.653 248.5 322.764 247.786 322.764 246.824C322.764 246.008 322.693 245.375 322.549 244.926L320.637 249.168C320.844 249.497 321.128 249.661 321.49 249.661Z" fill="url(#paint18_linear_175_1867)" fill-opacity="0.6"/>
<path d="M322.007 260.43H323.273V260.933H319.991V260.43H321.455V255.097L320.06 256.018L319.819 255.591L321.541 254.414H322.007V260.43Z" fill="url(#paint19_linear_175_1867)" fill-opacity="0.6"/>
<path d="M321.49 265.164C322.104 265.164 322.569 265.451 322.885 266.027C323.207 266.596 323.367 267.425 323.367 268.513C323.367 269.601 323.207 270.433 322.885 271.009C322.569 271.584 322.104 271.872 321.49 271.872C320.881 271.872 320.416 271.584 320.094 271.009C319.773 270.433 319.612 269.601 319.612 268.513C319.612 267.431 319.773 266.603 320.094 266.027C320.416 265.451 320.881 265.164 321.49 265.164ZM320.224 268.513C320.224 269.285 320.287 269.889 320.413 270.326L322.325 266.122C322.124 265.825 321.846 265.676 321.49 265.676C321.094 265.676 320.783 265.91 320.56 266.378C320.336 266.84 320.224 267.552 320.224 268.513ZM321.49 271.35C321.892 271.35 322.205 271.119 322.429 270.658C322.653 270.19 322.764 269.475 322.764 268.513C322.764 267.697 322.693 267.064 322.549 266.615L320.637 270.857C320.844 271.186 321.128 271.35 321.49 271.35Z" fill="url(#paint20_linear_175_1867)" fill-opacity="0.6"/>
<path d="M321.49 276.008C322.104 276.008 322.569 276.296 322.885 276.872C323.207 277.441 323.367 278.27 323.367 279.358C323.367 280.446 323.207 281.278 322.885 281.853C322.569 282.429 322.104 282.717 321.49 282.717C320.881 282.717 320.416 282.429 320.094 281.853C319.773 281.278 319.612 280.446 319.612 279.358C319.612 278.276 319.773 277.447 320.094 276.872C320.416 276.296 320.881 276.008 321.49 276.008ZM320.224 279.358C320.224 280.129 320.287 280.734 320.413 281.17L322.325 276.966C322.124 276.669 321.846 276.52 321.49 276.52C321.094 276.52 320.783 276.755 320.56 277.223C320.336 277.684 320.224 278.396 320.224 279.358ZM321.49 282.195C321.892 282.195 322.205 281.964 322.429 281.502C322.653 281.034 322.764 280.319 322.764 279.358C322.764 278.542 322.693 277.909 322.549 277.46L320.637 281.701C320.844 282.03 321.128 282.195 321.49 282.195Z" fill="url(#paint21_linear_175_1867)" fill-opacity="0.6"/>
<path d="M322.007 292.964H323.273V293.466H319.991V292.964H321.455V287.631L320.06 288.551L319.819 288.124L321.541 286.948H322.007V292.964Z" fill="url(#paint22_linear_175_1867)" fill-opacity="0.6"/>
<path d="M321.49 297.697C322.104 297.697 322.569 297.985 322.885 298.561C323.207 299.13 323.367 299.959 323.367 301.047C323.367 302.135 323.207 302.967 322.885 303.542C322.569 304.118 322.104 304.406 321.49 304.406C320.881 304.406 320.416 304.118 320.094 303.542C319.773 302.967 319.612 302.135 319.612 301.047C319.612 299.965 319.773 299.136 320.094 298.561C320.416 297.985 320.881 297.697 321.49 297.697ZM320.224 301.047C320.224 301.819 320.287 302.423 320.413 302.859L322.325 298.656C322.124 298.358 321.846 298.21 321.49 298.21C321.094 298.21 320.783 298.444 320.56 298.912C320.336 299.374 320.224 300.085 320.224 301.047ZM321.49 303.884C321.892 303.884 322.205 303.653 322.429 303.191C322.653 302.723 322.764 302.008 322.764 301.047C322.764 300.231 322.693 299.598 322.549 299.149L320.637 303.391C320.844 303.719 321.128 303.884 321.49 303.884Z" fill="url(#paint23_linear_175_1867)" fill-opacity="0.6"/>
<path d="M322.007 314.653H323.273V315.155H319.991V314.653H321.455V309.32L320.06 310.24L319.819 309.813L321.541 308.637H322.007V314.653Z" fill="url(#paint24_linear_175_1867)" fill-opacity="0.6"/>
<path d="M322.007 325.497H323.273V326H319.991V325.497H321.455V320.164L320.06 321.085L319.819 320.658L321.541 319.481H322.007V325.497Z" fill="url(#paint25_linear_175_1867)" fill-opacity="0.6"/>
<path d="M297.496 200.096C298.11 200.096 298.575 200.384 298.891 200.96C299.213 201.529 299.374 202.358 299.374 203.446C299.374 204.534 299.213 205.366 298.891 205.942C298.575 206.517 298.11 206.805 297.496 206.805C296.887 206.805 296.422 206.517 296.101 205.942C295.779 205.366 295.618 204.534 295.618 203.446C295.618 202.364 295.779 201.536 296.101 200.96C296.422 200.384 296.887 200.096 297.496 200.096ZM296.23 203.446C296.23 204.218 296.293 204.822 296.419 205.258L298.331 201.055C298.13 200.757 297.852 200.609 297.496 200.609C297.1 200.609 296.79 200.843 296.566 201.311C296.342 201.773 296.23 202.484 296.23 203.446ZM297.496 206.283C297.898 206.283 298.211 206.052 298.435 205.59C298.659 205.122 298.771 204.408 298.771 203.446C298.771 202.63 298.699 201.997 298.555 201.548L296.643 205.79C296.85 206.119 297.134 206.283 297.496 206.283Z" fill="url(#paint26_linear_175_1867)" fill-opacity="0.6"/>
<path d="M297.496 210.941C298.11 210.941 298.575 211.229 298.891 211.804C299.213 212.374 299.374 213.202 299.374 214.29C299.374 215.379 299.213 216.21 298.891 216.786C298.575 217.362 298.11 217.65 297.496 217.65C296.887 217.65 296.422 217.362 296.101 216.786C295.779 216.21 295.618 215.379 295.618 214.29C295.618 213.209 295.779 212.38 296.101 211.804C296.422 211.229 296.887 210.941 297.496 210.941ZM296.23 214.29C296.23 215.062 296.293 215.666 296.419 216.103L298.331 211.899C298.13 211.602 297.852 211.453 297.496 211.453C297.1 211.453 296.79 211.687 296.566 212.155C296.342 212.617 296.23 213.329 296.23 214.29ZM297.496 217.128C297.898 217.128 298.211 216.897 298.435 216.435C298.659 215.967 298.771 215.252 298.771 214.29C298.771 213.474 298.699 212.842 298.555 212.393L296.643 216.634C296.85 216.963 297.134 217.128 297.496 217.128Z" fill="url(#paint27_linear_175_1867)" fill-opacity="0.6"/>
<path d="M298.013 227.896H299.279V228.399H295.997V227.896H297.461V222.564L296.066 223.484L295.825 223.057L297.548 221.88H298.013V227.896Z" fill="url(#paint28_linear_175_1867)" fill-opacity="0.6"/>
<path d="M297.496 232.63C298.11 232.63 298.575 232.918 298.891 233.493C299.213 234.063 299.374 234.891 299.374 235.98C299.374 237.068 299.213 237.899 298.891 238.475C298.575 239.051 298.11 239.339 297.496 239.339C296.887 239.339 296.422 239.051 296.101 238.475C295.779 237.899 295.618 237.068 295.618 235.98C295.618 234.898 295.779 234.069 296.101 233.493C296.422 232.918 296.887 232.63 297.496 232.63ZM296.23 235.98C296.23 236.751 296.293 237.355 296.419 237.792L298.331 233.588C298.13 233.291 297.852 233.142 297.496 233.142C297.1 233.142 296.79 233.376 296.566 233.845C296.342 234.306 296.23 235.018 296.23 235.98ZM297.496 238.817C297.898 238.817 298.211 238.586 298.435 238.124C298.659 237.656 298.771 236.941 298.771 235.98C298.771 235.164 298.699 234.531 298.555 234.082L296.643 238.323C296.85 238.652 297.134 238.817 297.496 238.817Z" fill="url(#paint29_linear_175_1867)" fill-opacity="0.6"/>
<path d="M298.013 249.585H299.279V250.088H295.997V249.585H297.461V244.253L296.066 245.173L295.825 244.746L297.548 243.569H298.013V249.585Z" fill="url(#paint30_linear_175_1867)" fill-opacity="0.6"/>
<path d="M298.013 260.43H299.279V260.933H295.997V260.43H297.461V255.097L296.066 256.018L295.825 255.591L297.548 254.414H298.013V260.43Z" fill="url(#paint31_linear_175_1867)" fill-opacity="0.6"/>
<path d="M314.009 184.518H315.275V185.021H311.993V184.518H313.457V179.185L312.062 180.106L311.821 179.679L313.543 178.502H314.009V184.518Z" fill="url(#paint32_linear_175_1867)" fill-opacity="0.6"/>
<path d="M313.492 189.252C314.106 189.252 314.571 189.54 314.887 190.115C315.209 190.685 315.369 191.513 315.369 192.601C315.369 193.689 315.209 194.521 314.887 195.097C314.571 195.673 314.106 195.961 313.492 195.961C312.883 195.961 312.418 195.673 312.096 195.097C311.775 194.521 311.614 193.689 311.614 192.601C311.614 191.52 311.775 190.691 312.096 190.115C312.418 189.54 312.883 189.252 313.492 189.252ZM312.226 192.601C312.226 193.373 312.289 193.977 312.415 194.414L314.327 190.21C314.126 189.913 313.848 189.764 313.492 189.764C313.096 189.764 312.785 189.998 312.562 190.466C312.338 190.928 312.226 191.64 312.226 192.601ZM313.492 195.439C313.894 195.439 314.207 195.208 314.431 194.746C314.655 194.278 314.767 193.563 314.767 192.601C314.767 191.785 314.695 191.153 314.551 190.704L312.639 194.945C312.846 195.274 313.13 195.439 313.492 195.439Z" fill="url(#paint33_linear_175_1867)" fill-opacity="0.6"/>
<path d="M314.009 206.207H315.275V206.71H311.993V206.207H313.457V200.874L312.062 201.795L311.821 201.368L313.543 200.191H314.009V206.207Z" fill="url(#paint34_linear_175_1867)" fill-opacity="0.6"/>
<path d="M314.009 217.052H315.275V217.555H311.993V217.052H313.457V211.719L312.062 212.639L311.821 212.212L313.543 211.036H314.009V217.052Z" fill="url(#paint35_linear_175_1867)" fill-opacity="0.6"/>
<path d="M313.492 221.785C314.106 221.785 314.571 222.073 314.887 222.649C315.209 223.218 315.369 224.047 315.369 225.135C315.369 226.223 315.209 227.055 314.887 227.631C314.571 228.206 314.106 228.494 313.492 228.494C312.883 228.494 312.418 228.206 312.096 227.631C311.775 227.055 311.614 226.223 311.614 225.135C311.614 224.053 311.775 223.225 312.096 222.649C312.418 222.073 312.883 221.785 313.492 221.785ZM312.226 225.135C312.226 225.907 312.289 226.511 312.415 226.947L314.327 222.744C314.126 222.446 313.848 222.298 313.492 222.298C313.096 222.298 312.785 222.532 312.562 223C312.338 223.462 312.226 224.173 312.226 225.135ZM313.492 227.972C313.894 227.972 314.207 227.741 314.431 227.28C314.655 226.811 314.767 226.097 314.767 225.135C314.767 224.319 314.695 223.686 314.551 223.237L312.639 227.479C312.846 227.808 313.13 227.972 313.492 227.972Z" fill="url(#paint36_linear_175_1867)" fill-opacity="0.6"/>
<path d="M314.009 238.741H315.275V239.244H311.993V238.741H313.457V233.408L312.062 234.328L311.821 233.901L313.543 232.725H314.009V238.741Z" fill="url(#paint37_linear_175_1867)" fill-opacity="0.6"/>
<path d="M314.009 249.585H315.275V250.088H311.993V249.585H313.457V244.253L312.062 245.173L311.821 244.746L313.543 243.569H314.009V249.585Z" fill="url(#paint38_linear_175_1867)" fill-opacity="0.6"/>
<path d="M313.492 254.319C314.106 254.319 314.571 254.607 314.887 255.183C315.209 255.752 315.369 256.581 315.369 257.669C315.369 258.757 315.209 259.589 314.887 260.164C314.571 260.74 314.106 261.028 313.492 261.028C312.883 261.028 312.418 260.74 312.096 260.164C311.775 259.589 311.614 258.757 311.614 257.669C311.614 256.587 311.775 255.758 312.096 255.183C312.418 254.607 312.883 254.319 313.492 254.319ZM312.226 257.669C312.226 258.44 312.289 259.045 312.415 259.481L314.327 255.277C314.126 254.98 313.848 254.831 313.492 254.831C313.096 254.831 312.785 255.065 312.562 255.534C312.338 255.995 312.226 256.707 312.226 257.669ZM313.492 260.506C313.894 260.506 314.207 260.275 314.431 259.813C314.655 259.345 314.767 258.63 314.767 257.669C314.767 256.853 314.695 256.22 314.551 255.771L312.639 260.012C312.846 260.341 313.13 260.506 313.492 260.506Z" fill="url(#paint39_linear_175_1867)" fill-opacity="0.6"/>
<path d="M314.009 271.274H315.275V271.777H311.993V271.274H313.457V265.942L312.062 266.862L311.821 266.435L313.543 265.258H314.009V271.274Z" fill="url(#paint40_linear_175_1867)" fill-opacity="0.6"/>
<path d="M313.492 276.008C314.106 276.008 314.571 276.296 314.887 276.872C315.209 277.441 315.369 278.27 315.369 279.358C315.369 280.446 315.209 281.278 314.887 281.853C314.571 282.429 314.106 282.717 313.492 282.717C312.883 282.717 312.418 282.429 312.096 281.853C311.775 281.278 311.614 280.446 311.614 279.358C311.614 278.276 311.775 277.447 312.096 276.872C312.418 276.296 312.883 276.008 313.492 276.008ZM312.226 279.358C312.226 280.129 312.289 280.734 312.415 281.17L314.327 276.966C314.126 276.669 313.848 276.52 313.492 276.52C313.096 276.52 312.785 276.755 312.562 277.223C312.338 277.684 312.226 278.396 312.226 279.358ZM313.492 282.195C313.894 282.195 314.207 281.964 314.431 281.502C314.655 281.034 314.767 280.319 314.767 279.358C314.767 278.542 314.695 277.909 314.551 277.46L312.639 281.701C312.846 282.03 313.13 282.195 313.492 282.195Z" fill="url(#paint41_linear_175_1867)" fill-opacity="0.6"/>
<path d="M329.488 178.407C330.102 178.407 330.567 178.695 330.883 179.271C331.205 179.84 331.365 180.669 331.365 181.757C331.365 182.845 331.205 183.677 330.883 184.252C330.567 184.828 330.102 185.116 329.488 185.116C328.879 185.116 328.414 184.828 328.092 184.252C327.771 183.677 327.61 182.845 327.61 181.757C327.61 180.675 327.771 179.846 328.092 179.271C328.414 178.695 328.879 178.407 329.488 178.407ZM328.222 181.757C328.222 182.529 328.285 183.133 328.411 183.569L330.323 179.366C330.122 179.068 329.844 178.92 329.488 178.92C329.091 178.92 328.781 179.154 328.557 179.622C328.334 180.084 328.222 180.795 328.222 181.757ZM329.488 184.594C329.89 184.594 330.203 184.363 330.427 183.901C330.65 183.433 330.762 182.718 330.762 181.757C330.762 180.941 330.691 180.308 330.547 179.859L328.635 184.101C328.842 184.43 329.126 184.594 329.488 184.594Z" fill="url(#paint42_linear_175_1867)" fill-opacity="0.6"/>
<path d="M330.004 195.363H331.271V195.866H327.989V195.363H329.453V190.03L328.058 190.95L327.817 190.523L329.539 189.347H330.004V195.363Z" fill="url(#paint43_linear_175_1867)" fill-opacity="0.6"/>
<path d="M330.004 206.207H331.271V206.71H327.989V206.207H329.453V200.874L328.058 201.795L327.817 201.368L329.539 200.191H330.004V206.207Z" fill="url(#paint44_linear_175_1867)" fill-opacity="0.6"/>
<path d="M329.488 210.941C330.102 210.941 330.567 211.229 330.883 211.804C331.205 212.374 331.365 213.202 331.365 214.29C331.365 215.379 331.205 216.21 330.883 216.786C330.567 217.362 330.102 217.65 329.488 217.65C328.879 217.65 328.414 217.362 328.092 216.786C327.771 216.21 327.61 215.379 327.61 214.29C327.61 213.209 327.771 212.38 328.092 211.804C328.414 211.229 328.879 210.941 329.488 210.941ZM328.222 214.29C328.222 215.062 328.285 215.666 328.411 216.103L330.323 211.899C330.122 211.602 329.844 211.453 329.488 211.453C329.091 211.453 328.781 211.687 328.557 212.155C328.334 212.617 328.222 213.329 328.222 214.29ZM329.488 217.128C329.89 217.128 330.203 216.897 330.427 216.435C330.65 215.967 330.762 215.252 330.762 214.29C330.762 213.474 330.691 212.842 330.547 212.393L328.635 216.634C328.842 216.963 329.126 217.128 329.488 217.128Z" fill="url(#paint45_linear_175_1867)" fill-opacity="0.6"/>
<path d="M329.488 221.785C330.102 221.785 330.567 222.073 330.883 222.649C331.205 223.218 331.365 224.047 331.365 225.135C331.365 226.223 331.205 227.055 330.883 227.631C330.567 228.206 330.102 228.494 329.488 228.494C328.879 228.494 328.414 228.206 328.092 227.631C327.771 227.055 327.61 226.223 327.61 225.135C327.61 224.053 327.771 223.225 328.092 222.649C328.414 222.073 328.879 221.785 329.488 221.785ZM328.222 225.135C328.222 225.907 328.285 226.511 328.411 226.947L330.323 222.744C330.122 222.446 329.844 222.298 329.488 222.298C329.091 222.298 328.781 222.532 328.557 223C328.334 223.462 328.222 224.173 328.222 225.135ZM329.488 227.972C329.89 227.972 330.203 227.741 330.427 227.28C330.65 226.811 330.762 226.097 330.762 225.135C330.762 224.319 330.691 223.686 330.547 223.237L328.635 227.479C328.842 227.808 329.126 227.972 329.488 227.972Z" fill="url(#paint46_linear_175_1867)" fill-opacity="0.6"/>
<g opacity="0.6">
<path d="M669.908 30.5852C670.494 30.5852 670.938 30.8614 671.239 31.4139C671.546 31.9602 671.699 32.7555 671.699 33.7997C671.699 34.8438 671.546 35.6421 671.239 36.1946C670.938 36.747 670.494 37.0232 669.908 37.0232C669.327 37.0232 668.883 36.747 668.577 36.1946C668.27 35.6421 668.116 34.8438 668.116 33.7997C668.116 32.7616 668.27 31.9663 668.577 31.4139C668.883 30.8614 669.327 30.5852 669.908 30.5852ZM668.7 33.7997C668.7 34.5403 668.76 35.1201 668.881 35.5389L670.705 31.5049C670.513 31.2196 670.247 31.0769 669.908 31.0769C669.53 31.0769 669.234 31.3016 669.02 31.7508C668.807 32.194 668.7 32.8769 668.7 33.7997ZM669.908 36.5224C670.291 36.5224 670.59 36.3008 670.803 35.8577C671.017 35.4084 671.124 34.7224 671.124 33.7997C671.124 33.0165 671.055 32.4095 670.919 31.9784L669.094 36.0489C669.292 36.3646 669.563 36.5224 669.908 36.5224Z" fill="url(#paint47_linear_175_1867)"/>
<path d="M670.401 46.8566H671.609V47.3392H668.478V46.8566H669.875V41.7389L668.544 42.6222L668.314 42.2124L669.957 41.0833H670.401V46.8566Z" fill="url(#paint48_linear_175_1867)"/>
<path d="M669.908 51.3992C670.494 51.3992 670.938 51.6754 671.239 52.2279C671.546 52.7742 671.699 53.5695 671.699 54.6137C671.699 55.6578 671.546 56.4561 671.239 57.0086C670.938 57.561 670.494 57.8372 669.908 57.8372C669.327 57.8372 668.883 57.561 668.577 57.0086C668.27 56.4561 668.116 55.6578 668.116 54.6137C668.116 53.5756 668.27 52.7803 668.577 52.2279C668.883 51.6754 669.327 51.3992 669.908 51.3992ZM668.7 54.6137C668.7 55.3543 668.76 55.9341 668.881 56.3529L670.705 52.3189C670.513 52.0336 670.247 51.8909 669.908 51.8909C669.53 51.8909 669.234 52.1156 669.02 52.5648C668.807 53.008 668.7 53.6909 668.7 54.6137ZM669.908 57.3364C670.291 57.3364 670.59 57.1148 670.803 56.6717C671.017 56.2224 671.124 55.5364 671.124 54.6137C671.124 53.8305 671.055 53.2235 670.919 52.7924L669.094 56.8629C669.292 57.1786 669.563 57.3364 669.908 57.3364Z" fill="url(#paint49_linear_175_1867)"/>
<path d="M670.401 67.6706H671.609V68.1532H668.478V67.6706H669.875V62.5529L668.544 63.4362L668.314 63.0264L669.957 61.8973H670.401V67.6706Z" fill="url(#paint50_linear_175_1867)"/>
<path d="M670.401 78.0776H671.609V78.5602H668.478V78.0776H669.875V72.9599L668.544 73.8432L668.314 73.4334L669.957 72.3043H670.401V78.0776Z" fill="url(#paint51_linear_175_1867)"/>
<path d="M669.908 82.6202C670.494 82.6202 670.938 82.8964 671.239 83.4489C671.546 83.9952 671.699 84.7905 671.699 85.8347C671.699 86.8789 671.546 87.6772 671.239 88.2296C670.938 88.782 670.494 89.0583 669.908 89.0583C669.327 89.0583 668.883 88.782 668.577 88.2296C668.27 87.6772 668.116 86.8789 668.116 85.8347C668.116 84.7966 668.27 84.0013 668.577 83.4489C668.883 82.8964 669.327 82.6202 669.908 82.6202ZM668.7 85.8347C668.7 86.5753 668.76 87.1551 668.881 87.574L670.705 83.5399C670.513 83.2546 670.247 83.1119 669.908 83.1119C669.53 83.1119 669.234 83.3366 669.02 83.7858C668.807 84.229 668.7 84.9119 668.7 85.8347ZM669.908 88.5574C670.291 88.5574 670.59 88.3358 670.803 87.8927C671.017 87.4434 671.124 86.7574 671.124 85.8347C671.124 85.0516 671.055 84.4445 670.919 84.0135L669.094 88.0839C669.292 88.3996 669.563 88.5574 669.908 88.5574Z" fill="url(#paint52_linear_175_1867)"/>
<path d="M670.401 98.8916H671.609V99.3742H668.478V98.8916H669.875V93.7739L668.544 94.6572L668.314 94.2474L669.957 93.1183H670.401V98.8916Z" fill="url(#paint53_linear_175_1867)"/>
<path d="M669.908 103.434C670.494 103.434 670.938 103.71 671.239 104.263C671.546 104.809 671.699 105.605 671.699 106.649C671.699 107.693 671.546 108.491 671.239 109.044C670.938 109.596 670.494 109.872 669.908 109.872C669.327 109.872 668.883 109.596 668.577 109.044C668.27 108.491 668.116 107.693 668.116 106.649C668.116 105.611 668.27 104.815 668.577 104.263C668.883 103.71 669.327 103.434 669.908 103.434ZM668.7 106.649C668.7 107.389 668.76 107.969 668.881 108.388L670.705 104.354C670.513 104.069 670.247 103.926 669.908 103.926C669.53 103.926 669.234 104.151 669.02 104.6C668.807 105.043 668.7 105.726 668.7 106.649ZM669.908 109.371C670.291 109.371 670.59 109.15 670.803 108.707C671.017 108.257 671.124 107.571 671.124 106.649C671.124 105.866 671.055 105.258 670.919 104.827L669.094 108.898C669.292 109.214 669.563 109.371 669.908 109.371Z" fill="url(#paint54_linear_175_1867)"/>
<path d="M669.908 113.841C670.494 113.841 670.938 114.117 671.239 114.67C671.546 115.216 671.699 116.012 671.699 117.056C671.699 118.1 671.546 118.898 671.239 119.451C670.938 120.003 670.494 120.279 669.908 120.279C669.327 120.279 668.883 120.003 668.577 119.451C668.27 118.898 668.116 118.1 668.116 117.056C668.116 116.018 668.27 115.222 668.577 114.67C668.883 114.117 669.327 113.841 669.908 113.841ZM668.7 117.056C668.7 117.796 668.76 118.376 668.881 118.795L670.705 114.761C670.513 114.476 670.247 114.333 669.908 114.333C669.53 114.333 669.234 114.558 669.02 115.007C668.807 115.45 668.7 116.133 668.7 117.056ZM669.908 119.778C670.291 119.778 670.59 119.557 670.803 119.114C671.017 118.664 671.124 117.978 671.124 117.056C671.124 116.273 671.055 115.665 670.919 115.234L669.094 119.305C669.292 119.621 669.563 119.778 669.908 119.778Z" fill="url(#paint55_linear_175_1867)"/>
<path d="M670.401 130.113H671.609V130.595H668.478V130.113H669.875V124.995L668.544 125.878L668.314 125.468L669.957 124.339H670.401V130.113Z" fill="url(#paint56_linear_175_1867)"/>
<path d="M669.908 134.655C670.494 134.655 670.938 134.931 671.239 135.484C671.546 136.03 671.699 136.826 671.699 137.87C671.699 138.914 671.546 139.712 671.239 140.265C670.938 140.817 670.494 141.093 669.908 141.093C669.327 141.093 668.883 140.817 668.577 140.265C668.27 139.712 668.116 138.914 668.116 137.87C668.116 136.832 668.27 136.036 668.577 135.484C668.883 134.931 669.327 134.655 669.908 134.655ZM668.7 137.87C668.7 138.61 668.76 139.19 668.881 139.609L670.705 135.575C670.513 135.29 670.247 135.147 669.908 135.147C669.53 135.147 669.234 135.372 669.02 135.821C668.807 136.264 668.7 136.947 668.7 137.87ZM669.908 140.592C670.291 140.592 670.59 140.371 670.803 139.928C671.017 139.478 671.124 138.792 671.124 137.87C671.124 137.087 671.055 136.479 670.919 136.048L669.094 140.119C669.292 140.435 669.563 140.592 669.908 140.592Z" fill="url(#paint57_linear_175_1867)"/>
<path d="M670.401 150.927H671.609V151.409H668.478V150.927H669.875V145.809L668.544 146.692L668.314 146.282L669.957 145.153H670.401V150.927Z" fill="url(#paint58_linear_175_1867)"/>
<path d="M670.401 161.334H671.609V161.816H668.478V161.334H669.875V156.216L668.544 157.099L668.314 156.689L669.957 155.56H670.401V161.334Z" fill="url(#paint59_linear_175_1867)"/>
<path d="M685.168 51.3992C685.754 51.3992 686.198 51.6754 686.499 52.2279C686.806 52.7742 686.96 53.5695 686.96 54.6137C686.96 55.6578 686.806 56.4561 686.499 57.0086C686.198 57.561 685.754 57.8372 685.168 57.8372C684.588 57.8372 684.144 57.561 683.837 57.0086C683.53 56.4561 683.377 55.6578 683.377 54.6137C683.377 53.5756 683.53 52.7803 683.837 52.2279C684.144 51.6754 684.588 51.3992 685.168 51.3992ZM683.96 54.6137C683.96 55.3543 684.021 55.9341 684.141 56.3529L685.965 52.3189C685.774 52.0336 685.508 51.8909 685.168 51.8909C684.79 51.8909 684.494 52.1156 684.281 52.5648C684.067 53.008 683.96 53.6909 683.96 54.6137ZM685.168 57.3364C685.552 57.3364 685.85 57.1148 686.064 56.6717C686.278 56.2224 686.384 55.5364 686.384 54.6137C686.384 53.8305 686.316 53.2235 686.179 52.7924L684.355 56.8629C684.552 57.1786 684.823 57.3364 685.168 57.3364Z" fill="url(#paint60_linear_175_1867)"/>
<path d="M685.661 67.6706H686.869V68.1532H683.738V67.6706H685.135V62.5529L683.804 63.4362L683.574 63.0264L685.218 61.8973H685.661V67.6706Z" fill="url(#paint61_linear_175_1867)"/>
<path d="M685.168 72.2132C685.754 72.2132 686.198 72.4894 686.499 73.0419C686.806 73.5882 686.96 74.3835 686.96 75.4277C686.96 76.4719 686.806 77.2702 686.499 77.8226C686.198 78.375 685.754 78.6513 685.168 78.6513C684.588 78.6513 684.144 78.375 683.837 77.8226C683.53 77.2702 683.377 76.4719 683.377 75.4277C683.377 74.3896 683.53 73.5943 683.837 73.0419C684.144 72.4894 684.588 72.2132 685.168 72.2132ZM683.96 75.4277C683.96 76.1683 684.021 76.7481 684.141 77.1669L685.965 73.1329C685.774 72.8476 685.508 72.7049 685.168 72.7049C684.79 72.7049 684.494 72.9296 684.281 73.3788C684.067 73.822 683.96 74.5049 683.96 75.4277ZM685.168 78.1504C685.552 78.1504 685.85 77.9288 686.064 77.4857C686.278 77.0364 686.384 76.3504 686.384 75.4277C686.384 74.6446 686.316 74.0375 686.179 73.6065L684.355 77.6769C684.552 77.9926 684.823 78.1504 685.168 78.1504Z" fill="url(#paint62_linear_175_1867)"/>
<path d="M685.168 82.6202C685.754 82.6202 686.198 82.8964 686.499 83.4489C686.806 83.9952 686.96 84.7905 686.96 85.8347C686.96 86.8789 686.806 87.6772 686.499 88.2296C686.198 88.782 685.754 89.0583 685.168 89.0583C684.588 89.0583 684.144 88.782 683.837 88.2296C683.53 87.6772 683.377 86.8789 683.377 85.8347C683.377 84.7966 683.53 84.0013 683.837 83.4489C684.144 82.8964 684.588 82.6202 685.168 82.6202ZM683.96 85.8347C683.96 86.5753 684.021 87.1551 684.141 87.574L685.965 83.5399C685.774 83.2546 685.508 83.1119 685.168 83.1119C684.79 83.1119 684.494 83.3366 684.281 83.7858C684.067 84.229 683.96 84.9119 683.96 85.8347ZM685.168 88.5574C685.552 88.5574 685.85 88.3358 686.064 87.8927C686.278 87.4434 686.384 86.7574 686.384 85.8347C686.384 85.0516 686.316 84.4445 686.179 84.0135L684.355 88.0839C684.552 88.3996 684.823 88.5574 685.168 88.5574Z" fill="url(#paint63_linear_175_1867)"/>
<path d="M685.661 98.8916H686.869V99.3742H683.738V98.8916H685.135V93.7739L683.804 94.6572L683.574 94.2474L685.218 93.1183H685.661V98.8916Z" fill="url(#paint64_linear_175_1867)"/>
<path d="M685.168 103.434C685.754 103.434 686.198 103.71 686.499 104.263C686.806 104.809 686.96 105.605 686.96 106.649C686.96 107.693 686.806 108.491 686.499 109.044C686.198 109.596 685.754 109.872 685.168 109.872C684.588 109.872 684.144 109.596 683.837 109.044C683.53 108.491 683.377 107.693 683.377 106.649C683.377 105.611 683.53 104.815 683.837 104.263C684.144 103.71 684.588 103.434 685.168 103.434ZM683.96 106.649C683.96 107.389 684.021 107.969 684.141 108.388L685.965 104.354C685.774 104.069 685.508 103.926 685.168 103.926C684.79 103.926 684.494 104.151 684.281 104.6C684.067 105.043 683.96 105.726 683.96 106.649ZM685.168 109.371C685.552 109.371 685.85 109.15 686.064 108.707C686.278 108.257 686.384 107.571 686.384 106.649C686.384 105.866 686.316 105.258 686.179 104.827L684.355 108.898C684.552 109.214 684.823 109.371 685.168 109.371Z" fill="url(#paint65_linear_175_1867)"/>
<path d="M685.661 119.706H686.869V120.188H683.738V119.706H685.135V114.588L683.804 115.471L683.574 115.061L685.218 113.932H685.661V119.706Z" fill="url(#paint66_linear_175_1867)"/>
<path d="M685.168 124.248C685.754 124.248 686.198 124.524 686.499 125.077C686.806 125.623 686.96 126.419 686.96 127.463C686.96 128.507 686.806 129.305 686.499 129.858C686.198 130.41 685.754 130.686 685.168 130.686C684.588 130.686 684.144 130.41 683.837 129.858C683.53 129.305 683.377 128.507 683.377 127.463C683.377 126.425 683.53 125.629 683.837 125.077C684.144 124.524 684.588 124.248 685.168 124.248ZM683.96 127.463C683.96 128.203 684.021 128.783 684.141 129.202L685.965 125.168C685.774 124.883 685.508 124.74 685.168 124.74C684.79 124.74 684.494 124.965 684.281 125.414C684.067 125.857 683.96 126.54 683.96 127.463ZM685.168 130.185C685.552 130.185 685.85 129.964 686.064 129.521C686.278 129.071 686.384 128.385 686.384 127.463C686.384 126.68 686.316 126.072 686.179 125.641L684.355 129.712C684.552 130.028 684.823 130.185 685.168 130.185Z" fill="url(#paint67_linear_175_1867)"/>
<path d="M685.168 134.655C685.754 134.655 686.198 134.931 686.499 135.484C686.806 136.03 686.96 136.826 686.96 137.87C686.96 138.914 686.806 139.712 686.499 140.265C686.198 140.817 685.754 141.093 685.168 141.093C684.588 141.093 684.144 140.817 683.837 140.265C683.53 139.712 683.377 138.914 683.377 137.87C683.377 136.832 683.53 136.036 683.837 135.484C684.144 134.931 684.588 134.655 685.168 134.655ZM683.96 137.87C683.96 138.61 684.021 139.19 684.141 139.609L685.965 135.575C685.774 135.29 685.508 135.147 685.168 135.147C684.79 135.147 684.494 135.372 684.281 135.821C684.067 136.264 683.96 136.947 683.96 137.87ZM685.168 140.592C685.552 140.592 685.85 140.371 686.064 139.928C686.278 139.478 686.384 138.792 686.384 137.87C686.384 137.087 686.316 136.479 686.179 136.048L684.355 140.119C684.552 140.435 684.823 140.592 685.168 140.592Z" fill="url(#paint68_linear_175_1867)"/>
<path d="M685.661 150.927H686.869V151.409H683.738V150.927H685.135V145.809L683.804 146.692L683.574 146.282L685.218 145.153H685.661V150.927Z" fill="url(#paint69_linear_175_1867)"/>
<path d="M685.168 155.469C685.754 155.469 686.198 155.745 686.499 156.298C686.806 156.844 686.96 157.64 686.96 158.684C686.96 159.728 686.806 160.526 686.499 161.079C686.198 161.631 685.754 161.907 685.168 161.907C684.588 161.907 684.144 161.631 683.837 161.079C683.53 160.526 683.377 159.728 683.377 158.684C683.377 157.646 683.53 156.85 683.837 156.298C684.144 155.745 684.588 155.469 685.168 155.469ZM683.96 158.684C683.96 159.424 684.021 160.004 684.141 160.423L685.965 156.389C685.774 156.104 685.508 155.961 685.168 155.961C684.79 155.961 684.494 156.186 684.281 156.635C684.067 157.078 683.96 157.761 683.96 158.684ZM685.168 161.406C685.552 161.406 685.85 161.185 686.064 160.742C686.278 160.292 686.384 159.606 686.384 158.684C686.384 157.901 686.316 157.294 686.179 156.862L684.355 160.933C684.552 161.249 684.823 161.406 685.168 161.406Z" fill="url(#paint70_linear_175_1867)"/>
<path d="M685.661 171.741H686.869V172.223H683.738V171.741H685.135V166.623L683.804 167.506L683.574 167.096L685.218 165.967H685.661V171.741Z" fill="url(#paint71_linear_175_1867)"/>
<path d="M685.661 182.148H686.869V182.63H683.738V182.148H685.135V177.03L683.804 177.913L683.574 177.503L685.218 176.374H685.661V182.148Z" fill="url(#paint72_linear_175_1867)"/>
<path d="M662.278 61.8062C662.864 61.8062 663.307 62.0824 663.609 62.6349C663.916 63.1812 664.069 63.9765 664.069 65.0207C664.069 66.0648 663.916 66.8631 663.609 67.4156C663.307 67.968 662.864 68.2442 662.278 68.2442C661.697 68.2442 661.253 67.968 660.946 67.4156C660.64 66.8631 660.486 66.0648 660.486 65.0207C660.486 63.9826 660.64 63.1873 660.946 62.6349C661.253 62.0824 661.697 61.8062 662.278 61.8062ZM661.07 65.0207C661.07 65.7613 661.13 66.3411 661.25 66.7599L663.075 62.7259C662.883 62.4406 662.617 62.2979 662.278 62.2979C661.9 62.2979 661.604 62.5226 661.39 62.9718C661.176 63.415 661.07 64.0979 661.07 65.0207ZM662.278 67.7434C662.661 67.7434 662.96 67.5218 663.173 67.0787C663.387 66.6294 663.494 65.9434 663.494 65.0207C663.494 64.2376 663.425 63.6305 663.288 63.1995L661.464 67.2699C661.661 67.5856 661.932 67.7434 662.278 67.7434Z" fill="url(#paint73_linear_175_1867)"/>
<path d="M662.278 72.2132C662.864 72.2132 663.307 72.4894 663.609 73.0419C663.916 73.5882 664.069 74.3835 664.069 75.4277C664.069 76.4719 663.916 77.2702 663.609 77.8226C663.307 78.375 662.864 78.6513 662.278 78.6513C661.697 78.6513 661.253 78.375 660.946 77.8226C660.64 77.2702 660.486 76.4719 660.486 75.4277C660.486 74.3896 660.64 73.5943 660.946 73.0419C661.253 72.4894 661.697 72.2132 662.278 72.2132ZM661.07 75.4277C661.07 76.1683 661.13 76.7481 661.25 77.1669L663.075 73.1329C662.883 72.8476 662.617 72.7049 662.278 72.7049C661.9 72.7049 661.604 72.9296 661.39 73.3788C661.176 73.822 661.07 74.5049 661.07 75.4277ZM662.278 78.1504C662.661 78.1504 662.96 77.9288 663.173 77.4857C663.387 77.0364 663.494 76.3504 663.494 75.4277C663.494 74.6446 663.425 74.0375 663.288 73.6065L661.464 77.6769C661.661 77.9926 661.932 78.1504 662.278 78.1504Z" fill="url(#paint74_linear_175_1867)"/>
<path d="M662.771 88.4846H663.979V88.9672H660.848V88.4846H662.245V83.3669L660.913 84.2502L660.683 83.8404L662.327 82.7113H662.771V88.4846Z" fill="url(#paint75_linear_175_1867)"/>
<path d="M662.278 93.0272C662.864 93.0272 663.307 93.3034 663.609 93.8559C663.916 94.4023 664.069 95.1975 664.069 96.2417C664.069 97.2859 663.916 98.0842 663.609 98.6366C663.307 99.189 662.864 99.4653 662.278 99.4653C661.697 99.4653 661.253 99.189 660.946 98.6366C660.64 98.0842 660.486 97.2859 660.486 96.2417C660.486 95.2036 660.64 94.4083 660.946 93.8559C661.253 93.3034 661.697 93.0272 662.278 93.0272ZM661.07 96.2417C661.07 96.9823 661.13 97.5621 661.25 97.981L663.075 93.9469C662.883 93.6616 662.617 93.519 662.278 93.519C661.9 93.519 661.604 93.7436 661.39 94.1928C661.176 94.636 661.07 95.3189 661.07 96.2417ZM662.278 98.9644C662.661 98.9644 662.96 98.7428 663.173 98.2997C663.387 97.8504 663.494 97.1644 663.494 96.2417C663.494 95.4586 663.425 94.8515 663.288 94.4205L661.464 98.4909C661.661 98.8066 661.932 98.9644 662.278 98.9644Z" fill="url(#paint76_linear_175_1867)"/>
<path d="M662.771 109.299H663.979V109.781H660.848V109.299H662.245V104.181L660.913 105.064L660.683 104.654L662.327 103.525H662.771V109.299Z" fill="url(#paint77_linear_175_1867)"/>
<path d="M662.771 119.706H663.979V120.188H660.848V119.706H662.245V114.588L660.913 115.471L660.683 115.061L662.327 113.932H662.771V119.706Z" fill="url(#paint78_linear_175_1867)"/>
<path d="M678.031 46.8566H679.239V47.3392H676.108V46.8566H677.505V41.7389L676.174 42.6222L675.944 42.2124L677.587 41.0833H678.031V46.8566Z" fill="url(#paint79_linear_175_1867)"/>
<path d="M677.538 51.3992C678.124 51.3992 678.568 51.6754 678.869 52.2279C679.176 52.7742 679.329 53.5695 679.329 54.6137C679.329 55.6578 679.176 56.4561 678.869 57.0086C678.568 57.561 678.124 57.8372 677.538 57.8372C676.957 57.8372 676.514 57.561 676.207 57.0086C675.9 56.4561 675.747 55.6578 675.747 54.6137C675.747 53.5756 675.9 52.7803 676.207 52.2279C676.514 51.6754 676.957 51.3992 677.538 51.3992ZM676.33 54.6137C676.33 55.3543 676.39 55.9341 676.511 56.3529L678.335 52.3189C678.143 52.0336 677.878 51.8909 677.538 51.8909C677.16 51.8909 676.864 52.1156 676.651 52.5648C676.437 53.008 676.33 53.6909 676.33 54.6137ZM677.538 57.3364C677.921 57.3364 678.22 57.1148 678.434 56.6717C678.647 56.2224 678.754 55.5364 678.754 54.6137C678.754 53.8305 678.686 53.2235 678.549 52.7924L676.725 56.8629C676.922 57.1786 677.193 57.3364 677.538 57.3364Z" fill="url(#paint80_linear_175_1867)"/>
<path d="M678.031 67.6706H679.239V68.1532H676.108V67.6706H677.505V62.5529L676.174 63.4362L675.944 63.0264L677.587 61.8973H678.031V67.6706Z" fill="url(#paint81_linear_175_1867)"/>
<path d="M678.031 78.0776H679.239V78.5602H676.108V78.0776H677.505V72.9599L676.174 73.8432L675.944 73.4334L677.587 72.3043H678.031V78.0776Z" fill="url(#paint82_linear_175_1867)"/>
<path d="M677.538 82.6202C678.124 82.6202 678.568 82.8964 678.869 83.4489C679.176 83.9952 679.329 84.7905 679.329 85.8347C679.329 86.8789 679.176 87.6772 678.869 88.2296C678.568 88.782 678.124 89.0583 677.538 89.0583C676.957 89.0583 676.514 88.782 676.207 88.2296C675.9 87.6772 675.747 86.8789 675.747 85.8347C675.747 84.7966 675.9 84.0013 676.207 83.4489C676.514 82.8964 676.957 82.6202 677.538 82.6202ZM676.33 85.8347C676.33 86.5753 676.39 87.1551 676.511 87.574L678.335 83.5399C678.143 83.2546 677.878 83.1119 677.538 83.1119C677.16 83.1119 676.864 83.3366 676.651 83.7858C676.437 84.229 676.33 84.9119 676.33 85.8347ZM677.538 88.5574C677.921 88.5574 678.22 88.3358 678.434 87.8927C678.647 87.4434 678.754 86.7574 678.754 85.8347C678.754 85.0516 678.686 84.4445 678.549 84.0135L676.725 88.0839C676.922 88.3996 677.193 88.5574 677.538 88.5574Z" fill="url(#paint83_linear_175_1867)"/>
<path d="M678.031 98.8916H679.239V99.3742H676.108V98.8916H677.505V93.7739L676.174 94.6572L675.944 94.2474L677.587 93.1183H678.031V98.8916Z" fill="url(#paint84_linear_175_1867)"/>
<path d="M678.031 109.299H679.239V109.781H676.108V109.299H677.505V104.181L676.174 105.064L675.944 104.654L677.587 103.525H678.031V109.299Z" fill="url(#paint85_linear_175_1867)"/>
<path d="M677.538 113.841C678.124 113.841 678.568 114.117 678.869 114.67C679.176 115.216 679.329 116.012 679.329 117.056C679.329 118.1 679.176 118.898 678.869 119.451C678.568 120.003 678.124 120.279 677.538 120.279C676.957 120.279 676.514 120.003 676.207 119.451C675.9 118.898 675.747 118.1 675.747 117.056C675.747 116.018 675.9 115.222 676.207 114.67C676.514 114.117 676.957 113.841 677.538 113.841ZM676.33 117.056C676.33 117.796 676.39 118.376 676.511 118.795L678.335 114.761C678.143 114.476 677.878 114.333 677.538 114.333C677.16 114.333 676.864 114.558 676.651 115.007C676.437 115.45 676.33 116.133 676.33 117.056ZM677.538 119.778C677.921 119.778 678.22 119.557 678.434 119.114C678.647 118.664 678.754 117.978 678.754 117.056C678.754 116.273 678.686 115.665 678.549 115.234L676.725 119.305C676.922 119.621 677.193 119.778 677.538 119.778Z" fill="url(#paint86_linear_175_1867)"/>
<path d="M678.031 130.113H679.239V130.595H676.108V130.113H677.505V124.995L676.174 125.878L675.944 125.468L677.587 124.339H678.031V130.113Z" fill="url(#paint87_linear_175_1867)"/>
<path d="M677.538 134.655C678.124 134.655 678.568 134.931 678.869 135.484C679.176 136.03 679.329 136.826 679.329 137.87C679.329 138.914 679.176 139.712 678.869 140.265C678.568 140.817 678.124 141.093 677.538 141.093C676.957 141.093 676.514 140.817 676.207 140.265C675.9 139.712 675.747 138.914 675.747 137.87C675.747 136.832 675.9 136.036 676.207 135.484C676.514 134.931 676.957 134.655 677.538 134.655ZM676.33 137.87C676.33 138.61 676.39 139.19 676.511 139.609L678.335 135.575C678.143 135.29 677.878 135.147 677.538 135.147C677.16 135.147 676.864 135.372 676.651 135.821C676.437 136.264 676.33 136.947 676.33 137.87ZM677.538 140.592C677.921 140.592 678.22 140.371 678.434 139.928C678.647 139.478 678.754 138.792 678.754 137.87C678.754 137.087 678.686 136.479 678.549 136.048L676.725 140.119C676.922 140.435 677.193 140.592 677.538 140.592Z" fill="url(#paint88_linear_175_1867)"/>
<path d="M692.799 40.9922C693.385 40.9922 693.828 41.2684 694.13 41.8209C694.436 42.3672 694.59 43.1625 694.59 44.2067C694.59 45.2508 694.436 46.0491 694.13 46.6016C693.828 47.154 693.385 47.4302 692.799 47.4302C692.218 47.4302 691.774 47.154 691.467 46.6016C691.161 46.0491 691.007 45.2508 691.007 44.2067C691.007 43.1686 691.161 42.3733 691.467 41.8209C691.774 41.2684 692.218 40.9922 692.799 40.9922ZM691.591 44.2067C691.591 44.9473 691.651 45.5271 691.771 45.9459L693.596 41.9119C693.404 41.6266 693.138 41.4839 692.799 41.4839C692.421 41.4839 692.125 41.7086 691.911 42.1578C691.697 42.601 691.591 43.2839 691.591 44.2067ZM692.799 46.9294C693.182 46.9294 693.481 46.7078 693.694 46.2647C693.908 45.8154 694.015 45.1294 694.015 44.2067C694.015 43.4235 693.946 42.8165 693.809 42.3854L691.985 46.4559C692.182 46.7716 692.453 46.9294 692.799 46.9294Z" fill="url(#paint89_linear_175_1867)"/>
<path d="M693.292 57.2636H694.499V57.7462H691.369V57.2636H692.766V52.1459L691.434 53.0292L691.204 52.6194L692.848 51.4903H693.292V57.2636Z" fill="url(#paint90_linear_175_1867)"/>
<path d="M693.292 67.6706H694.499V68.1532H691.369V67.6706H692.766V62.5529L691.434 63.4362L691.204 63.0264L692.848 61.8973H693.292V67.6706Z" fill="url(#paint91_linear_175_1867)"/>
<path d="M692.799 72.2132C693.385 72.2132 693.828 72.4894 694.13 73.0419C694.436 73.5882 694.59 74.3835 694.59 75.4277C694.59 76.4719 694.436 77.2702 694.13 77.8226C693.828 78.375 693.385 78.6513 692.799 78.6513C692.218 78.6513 691.774 78.375 691.467 77.8226C691.161 77.2702 691.007 76.4719 691.007 75.4277C691.007 74.3896 691.161 73.5943 691.467 73.0419C691.774 72.4894 692.218 72.2132 692.799 72.2132ZM691.591 75.4277C691.591 76.1683 691.651 76.7481 691.771 77.1669L693.596 73.1329C693.404 72.8476 693.138 72.7049 692.799 72.7049C692.421 72.7049 692.125 72.9296 691.911 73.3788C691.697 73.822 691.591 74.5049 691.591 75.4277ZM692.799 78.1504C693.182 78.1504 693.481 77.9288 693.694 77.4857C693.908 77.0364 694.015 76.3504 694.015 75.4277C694.015 74.6446 693.946 74.0375 693.809 73.6065L691.985 77.6769C692.182 77.9926 692.453 78.1504 692.799 78.1504Z" fill="url(#paint92_linear_175_1867)"/>
<path d="M692.799 82.6202C693.385 82.6202 693.828 82.8964 694.13 83.4489C694.436 83.9952 694.59 84.7905 694.59 85.8347C694.59 86.8789 694.436 87.6772 694.13 88.2296C693.828 88.782 693.385 89.0583 692.799 89.0583C692.218 89.0583 691.774 88.782 691.467 88.2296C691.161 87.6772 691.007 86.8789 691.007 85.8347C691.007 84.7966 691.161 84.0013 691.467 83.4489C691.774 82.8964 692.218 82.6202 692.799 82.6202ZM691.591 85.8347C691.591 86.5753 691.651 87.1551 691.771 87.574L693.596 83.5399C693.404 83.2546 693.138 83.1119 692.799 83.1119C692.421 83.1119 692.125 83.3366 691.911 83.7858C691.697 84.229 691.591 84.9119 691.591 85.8347ZM692.799 88.5574C693.182 88.5574 693.481 88.3358 693.694 87.8927C693.908 87.4434 694.015 86.7574 694.015 85.8347C694.015 85.0516 693.946 84.4445 693.809 84.0135L691.985 88.0839C692.182 88.3996 692.453 88.5574 692.799 88.5574Z" fill="url(#paint93_linear_175_1867)"/>
</g>
</g>
<defs>
<filter id="filter0_f_175_1867" x="-173.19" y="-500.19" width="1351.38" height="1119.99" filterUnits="userSpaceOnUse" color-interpolation-filters="sRGB">
<feFlood flood-opacity="0" result="BackgroundImageFix"/>
<feBlend mode="normal" in="SourceGraphic" in2="BackgroundImageFix" result="shape"/>
<feGaussianBlur stdDeviation="200.095" result="effect1_foregroundBlur_175_1867"/>
</filter>
<linearGradient id="paint0_linear_175_1867" x1="313.492" y1="167.563" x2="313.492" y2="309.737" gradientUnits="userSpaceOnUse">
<stop stop-color="#F7DD43"/>
<stop offset="1" stop-color="#F7DD43" stop-opacity="0"/>
</linearGradient>
<linearGradient id="paint1_linear_175_1867" x1="313.492" y1="167.563" x2="313.492" y2="309.737" gradientUnits="userSpaceOnUse">
<stop stop-color="#F7DD43"/>
<stop offset="1" stop-color="#F7DD43" stop-opacity="0"/>
</linearGradient>
<linearGradient id="paint2_linear_175_1867" x1="313.492" y1="167.563" x2="313.492" y2="309.737" gradientUnits="userSpaceOnUse">
<stop stop-color="#F7DD43"/>
<stop offset="1" stop-color="#F7DD43" stop-opacity="0"/>
</linearGradient>
<linearGradient id="paint3_linear_175_1867" x1="313.492" y1="167.563" x2="313.492" y2="309.737" gradientUnits="userSpaceOnUse">
<stop stop-color="#F7DD43"/>
<stop offset="1" stop-color="#F7DD43" stop-opacity="0"/>
</linearGradient>
<linearGradient id="paint4_linear_175_1867" x1="313.492" y1="167.563" x2="313.492" y2="309.737" gradientUnits="userSpaceOnUse">
<stop stop-color="#F7DD43"/>
<stop offset="1" stop-color="#F7DD43" stop-opacity="0"/>
</linearGradient>
<linearGradient id="paint5_linear_175_1867" x1="313.492" y1="167.563" x2="313.492" y2="309.737" gradientUnits="userSpaceOnUse">
<stop stop-color="#F7DD43"/>
<stop offset="1" stop-color="#F7DD43" stop-opacity="0"/>
</linearGradient>
<linearGradient id="paint6_linear_175_1867" x1="313.492" y1="167.563" x2="313.492" y2="309.737" gradientUnits="userSpaceOnUse">
<stop stop-color="#F7DD43"/>
<stop offset="1" stop-color="#F7DD43" stop-opacity="0"/>
</linearGradient>
<linearGradient id="paint7_linear_175_1867" x1="313.492" y1="167.563" x2="313.492" y2="309.737" gradientUnits="userSpaceOnUse">
<stop stop-color="#F7DD43"/>
<stop offset="1" stop-color="#F7DD43" stop-opacity="0"/>
</linearGradient>
<linearGradient id="paint8_linear_175_1867" x1="313.492" y1="167.563" x2="313.492" y2="309.737" gradientUnits="userSpaceOnUse">
<stop stop-color="#F7DD43"/>
<stop offset="1" stop-color="#F7DD43" stop-opacity="0"/>
</linearGradient>
<linearGradient id="paint9_linear_175_1867" x1="313.492" y1="167.563" x2="313.492" y2="309.737" gradientUnits="userSpaceOnUse">
<stop stop-color="#F7DD43"/>
<stop offset="1" stop-color="#F7DD43" stop-opacity="0"/>
</linearGradient>
<linearGradient id="paint10_linear_175_1867" x1="313.492" y1="167.563" x2="313.492" y2="309.737" gradientUnits="userSpaceOnUse">
<stop stop-color="#F7DD43"/>
<stop offset="1" stop-color="#F7DD43" stop-opacity="0"/>
</linearGradient>
<linearGradient id="paint11_linear_175_1867" x1="313.492" y1="167.563" x2="313.492" y2="309.737" gradientUnits="userSpaceOnUse">
<stop stop-color="#F7DD43"/>
<stop offset="1" stop-color="#F7DD43" stop-opacity="0"/>
</linearGradient>
<linearGradient id="paint12_linear_175_1867" x1="313.492" y1="167.563" x2="313.492" y2="309.737" gradientUnits="userSpaceOnUse">
<stop stop-color="#F7DD43"/>
<stop offset="1" stop-color="#F7DD43" stop-opacity="0"/>
</linearGradient>
<linearGradient id="paint13_linear_175_1867" x1="313.492" y1="167.563" x2="313.492" y2="309.737" gradientUnits="userSpaceOnUse">
<stop stop-color="#F7DD43"/>
<stop offset="1" stop-color="#F7DD43" stop-opacity="0"/>
</linearGradient>
<linearGradient id="paint14_linear_175_1867" x1="313.492" y1="167.563" x2="313.492" y2="309.737" gradientUnits="userSpaceOnUse">
<stop stop-color="#F7DD43"/>
<stop offset="1" stop-color="#F7DD43" stop-opacity="0"/>
</linearGradient>
<linearGradient id="paint15_linear_175_1867" x1="313.492" y1="167.563" x2="313.492" y2="309.737" gradientUnits="userSpaceOnUse">
<stop stop-color="#F7DD43"/>
<stop offset="1" stop-color="#F7DD43" stop-opacity="0"/>
</linearGradient>
<linearGradient id="paint16_linear_175_1867" x1="313.492" y1="167.563" x2="313.492" y2="309.737" gradientUnits="userSpaceOnUse">
<stop stop-color="#F7DD43"/>
<stop offset="1" stop-color="#F7DD43" stop-opacity="0"/>
</linearGradient>
<linearGradient id="paint17_linear_175_1867" x1="313.492" y1="167.563" x2="313.492" y2="309.737" gradientUnits="userSpaceOnUse">
<stop stop-color="#F7DD43"/>
<stop offset="1" stop-color="#F7DD43" stop-opacity="0"/>
</linearGradient>
<linearGradient id="paint18_linear_175_1867" x1="313.492" y1="167.563" x2="313.492" y2="309.737" gradientUnits="userSpaceOnUse">
<stop stop-color="#F7DD43"/>
<stop offset="1" stop-color="#F7DD43" stop-opacity="0"/>
</linearGradient>
<linearGradient id="paint19_linear_175_1867" x1="313.492" y1="167.563" x2="313.492" y2="309.737" gradientUnits="userSpaceOnUse">
<stop stop-color="#F7DD43"/>
<stop offset="1" stop-color="#F7DD43" stop-opacity="0"/>
</linearGradient>
<linearGradient id="paint20_linear_175_1867" x1="313.492" y1="167.563" x2="313.492" y2="309.737" gradientUnits="userSpaceOnUse">
<stop stop-color="#F7DD43"/>
<stop offset="1" stop-color="#F7DD43" stop-opacity="0"/>
</linearGradient>
<linearGradient id="paint21_linear_175_1867" x1="313.492" y1="167.563" x2="313.492" y2="309.737" gradientUnits="userSpaceOnUse">
<stop stop-color="#F7DD43"/>
<stop offset="1" stop-color="#F7DD43" stop-opacity="0"/>
</linearGradient>
<linearGradient id="paint22_linear_175_1867" x1="313.492" y1="167.563" x2="313.492" y2="309.737" gradientUnits="userSpaceOnUse">
<stop stop-color="#F7DD43"/>
<stop offset="1" stop-color="#F7DD43" stop-opacity="0"/>
</linearGradient>
<linearGradient id="paint23_linear_175_1867" x1="313.492" y1="167.563" x2="313.492" y2="309.737" gradientUnits="userSpaceOnUse">
<stop stop-color="#F7DD43"/>
<stop offset="1" stop-color="#F7DD43" stop-opacity="0"/>
</linearGradient>
<linearGradient id="paint24_linear_175_1867" x1="313.492" y1="167.563" x2="313.492" y2="309.737" gradientUnits="userSpaceOnUse">
<stop stop-color="#F7DD43"/>
<stop offset="1" stop-color="#F7DD43" stop-opacity="0"/>
</linearGradient>
<linearGradient id="paint25_linear_175_1867" x1="313.492" y1="167.563" x2="313.492" y2="309.737" gradientUnits="userSpaceOnUse">
<stop stop-color="#F7DD43"/>
<stop offset="1" stop-color="#F7DD43" stop-opacity="0"/>
</linearGradient>
<linearGradient id="paint26_linear_175_1867" x1="313.492" y1="167.563" x2="313.492" y2="309.737" gradientUnits="userSpaceOnUse">
<stop stop-color="#F7DD43"/>
<stop offset="1" stop-color="#F7DD43" stop-opacity="0"/>
</linearGradient>
<linearGradient id="paint27_linear_175_1867" x1="313.492" y1="167.563" x2="313.492" y2="309.737" gradientUnits="userSpaceOnUse">
<stop stop-color="#F7DD43"/>
<stop offset="1" stop-color="#F7DD43" stop-opacity="0"/>
</linearGradient>
<linearGradient id="paint28_linear_175_1867" x1="313.492" y1="167.563" x2="313.492" y2="309.737" gradientUnits="userSpaceOnUse">
<stop stop-color="#F7DD43"/>
<stop offset="1" stop-color="#F7DD43" stop-opacity="0"/>
</linearGradient>
<linearGradient id="paint29_linear_175_1867" x1="313.492" y1="167.563" x2="313.492" y2="309.737" gradientUnits="userSpaceOnUse">
<stop stop-color="#F7DD43"/>
<stop offset="1" stop-color="#F7DD43" stop-opacity="0"/>
</linearGradient>
<linearGradient id="paint30_linear_175_1867" x1="313.492" y1="167.563" x2="313.492" y2="309.737" gradientUnits="userSpaceOnUse">
<stop stop-color="#F7DD43"/>
<stop offset="1" stop-color="#F7DD43" stop-opacity="0"/>
</linearGradient>
<linearGradient id="paint31_linear_175_1867" x1="313.492" y1="167.563" x2="313.492" y2="309.737" gradientUnits="userSpaceOnUse">
<stop stop-color="#F7DD43"/>
<stop offset="1" stop-color="#F7DD43" stop-opacity="0"/>
</linearGradient>
<linearGradient id="paint32_linear_175_1867" x1="313.492" y1="167.563" x2="313.492" y2="309.737" gradientUnits="userSpaceOnUse">
<stop stop-color="#F7DD43"/>
<stop offset="1" stop-color="#F7DD43" stop-opacity="0"/>
</linearGradient>
<linearGradient id="paint33_linear_175_1867" x1="313.492" y1="167.563" x2="313.492" y2="309.737" gradientUnits="userSpaceOnUse">
<stop stop-color="#F7DD43"/>
<stop offset="1" stop-color="#F7DD43" stop-opacity="0"/>
</linearGradient>
<linearGradient id="paint34_linear_175_1867" x1="313.492" y1="167.563" x2="313.492" y2="309.737" gradientUnits="userSpaceOnUse">
<stop stop-color="#F7DD43"/>
<stop offset="1" stop-color="#F7DD43" stop-opacity="0"/>
</linearGradient>
<linearGradient id="paint35_linear_175_1867" x1="313.492" y1="167.563" x2="313.492" y2="309.737" gradientUnits="userSpaceOnUse">
<stop stop-color="#F7DD43"/>
<stop offset="1" stop-color="#F7DD43" stop-opacity="0"/>
</linearGradient>
<linearGradient id="paint36_linear_175_1867" x1="313.492" y1="167.563" x2="313.492" y2="309.737" gradientUnits="userSpaceOnUse">
<stop stop-color="#F7DD43"/>
<stop offset="1" stop-color="#F7DD43" stop-opacity="0"/>
</linearGradient>
<linearGradient id="paint37_linear_175_1867" x1="313.492" y1="167.563" x2="313.492" y2="309.737" gradientUnits="userSpaceOnUse">
<stop stop-color="#F7DD43"/>
<stop offset="1" stop-color="#F7DD43" stop-opacity="0"/>
</linearGradient>
<linearGradient id="paint38_linear_175_1867" x1="313.492" y1="167.563" x2="313.492" y2="309.737" gradientUnits="userSpaceOnUse">
<stop stop-color="#F7DD43"/>
<stop offset="1" stop-color="#F7DD43" stop-opacity="0"/>
</linearGradient>
<linearGradient id="paint39_linear_175_1867" x1="313.492" y1="167.563" x2="313.492" y2="309.737" gradientUnits="userSpaceOnUse">
<stop stop-color="#F7DD43"/>
<stop offset="1" stop-color="#F7DD43" stop-opacity="0"/>
</linearGradient>
<linearGradient id="paint40_linear_175_1867" x1="313.492" y1="167.563" x2="313.492" y2="309.737" gradientUnits="userSpaceOnUse">
<stop stop-color="#F7DD43"/>
<stop offset="1" stop-color="#F7DD43" stop-opacity="0"/>
</linearGradient>
<linearGradient id="paint41_linear_175_1867" x1="313.492" y1="167.563" x2="313.492" y2="309.737" gradientUnits="userSpaceOnUse">
<stop stop-color="#F7DD43"/>
<stop offset="1" stop-color="#F7DD43" stop-opacity="0"/>
</linearGradient>
<linearGradient id="paint42_linear_175_1867" x1="313.492" y1="167.563" x2="313.492" y2="309.737" gradientUnits="userSpaceOnUse">
<stop stop-color="#F7DD43"/>
<stop offset="1" stop-color="#F7DD43" stop-opacity="0"/>
</linearGradient>
<linearGradient id="paint43_linear_175_1867" x1="313.492" y1="167.563" x2="313.492" y2="309.737" gradientUnits="userSpaceOnUse">
<stop stop-color="#F7DD43"/>
<stop offset="1" stop-color="#F7DD43" stop-opacity="0"/>
</linearGradient>
<linearGradient id="paint44_linear_175_1867" x1="313.492" y1="167.563" x2="313.492" y2="309.737" gradientUnits="userSpaceOnUse">
<stop stop-color="#F7DD43"/>
<stop offset="1" stop-color="#F7DD43" stop-opacity="0"/>
</linearGradient>
<linearGradient id="paint45_linear_175_1867" x1="313.492" y1="167.563" x2="313.492" y2="309.737" gradientUnits="userSpaceOnUse">
<stop stop-color="#F7DD43"/>
<stop offset="1" stop-color="#F7DD43" stop-opacity="0"/>
</linearGradient>
<linearGradient id="paint46_linear_175_1867" x1="313.492" y1="167.563" x2="313.492" y2="309.737" gradientUnits="userSpaceOnUse">
<stop stop-color="#F7DD43"/>
<stop offset="1" stop-color="#F7DD43" stop-opacity="0"/>
</linearGradient>
<linearGradient id="paint47_linear_175_1867" x1="677.538" y1="30.5852" x2="677.538" y2="167.023" gradientUnits="userSpaceOnUse">
<stop stop-color="#F7DD43"/>
<stop offset="1" stop-color="#F7DD43" stop-opacity="0"/>
</linearGradient>
<linearGradient id="paint48_linear_175_1867" x1="677.538" y1="30.5852" x2="677.538" y2="167.023" gradientUnits="userSpaceOnUse">
<stop stop-color="#F7DD43"/>
<stop offset="1" stop-color="#F7DD43" stop-opacity="0"/>
</linearGradient>
<linearGradient id="paint49_linear_175_1867" x1="677.538" y1="30.5852" x2="677.538" y2="167.023" gradientUnits="userSpaceOnUse">
<stop stop-color="#F7DD43"/>
<stop offset="1" stop-color="#F7DD43" stop-opacity="0"/>
</linearGradient>
<linearGradient id="paint50_linear_175_1867" x1="677.538" y1="30.5852" x2="677.538" y2="167.023" gradientUnits="userSpaceOnUse">
<stop stop-color="#F7DD43"/>
<stop offset="1" stop-color="#F7DD43" stop-opacity="0"/>
</linearGradient>
<linearGradient id="paint51_linear_175_1867" x1="677.538" y1="30.5852" x2="677.538" y2="167.023" gradientUnits="userSpaceOnUse">
<stop stop-color="#F7DD43"/>
<stop offset="1" stop-color="#F7DD43" stop-opacity="0"/>
</linearGradient>
<linearGradient id="paint52_linear_175_1867" x1="677.538" y1="30.5852" x2="677.538" y2="167.023" gradientUnits="userSpaceOnUse">
<stop stop-color="#F7DD43"/>
<stop offset="1" stop-color="#F7DD43" stop-opacity="0"/>
</linearGradient>
<linearGradient id="paint53_linear_175_1867" x1="677.538" y1="30.5852" x2="677.538" y2="167.023" gradientUnits="userSpaceOnUse">
<stop stop-color="#F7DD43"/>
<stop offset="1" stop-color="#F7DD43" stop-opacity="0"/>
</linearGradient>
<linearGradient id="paint54_linear_175_1867" x1="677.538" y1="30.5852" x2="677.538" y2="167.023" gradientUnits="userSpaceOnUse">
<stop stop-color="#F7DD43"/>
<stop offset="1" stop-color="#F7DD43" stop-opacity="0"/>
</linearGradient>
<linearGradient id="paint55_linear_175_1867" x1="677.538" y1="30.5852" x2="677.538" y2="167.023" gradientUnits="userSpaceOnUse">
<stop stop-color="#F7DD43"/>
<stop offset="1" stop-color="#F7DD43" stop-opacity="0"/>
</linearGradient>
<linearGradient id="paint56_linear_175_1867" x1="677.538" y1="30.5852" x2="677.538" y2="167.023" gradientUnits="userSpaceOnUse">
<stop stop-color="#F7DD43"/>
<stop offset="1" stop-color="#F7DD43" stop-opacity="0"/>
</linearGradient>
<linearGradient id="paint57_linear_175_1867" x1="677.538" y1="30.5852" x2="677.538" y2="167.023" gradientUnits="userSpaceOnUse">
<stop stop-color="#F7DD43"/>
<stop offset="1" stop-color="#F7DD43" stop-opacity="0"/>
</linearGradient>
<linearGradient id="paint58_linear_175_1867" x1="677.538" y1="30.5852" x2="677.538" y2="167.023" gradientUnits="userSpaceOnUse">
<stop stop-color="#F7DD43"/>
<stop offset="1" stop-color="#F7DD43" stop-opacity="0"/>
</linearGradient>
<linearGradient id="paint59_linear_175_1867" x1="677.538" y1="30.5852" x2="677.538" y2="167.023" gradientUnits="userSpaceOnUse">
<stop stop-color="#F7DD43"/>
<stop offset="1" stop-color="#F7DD43" stop-opacity="0"/>
</linearGradient>
<linearGradient id="paint60_linear_175_1867" x1="677.538" y1="30.5852" x2="677.538" y2="167.023" gradientUnits="userSpaceOnUse">
<stop stop-color="#F7DD43"/>
<stop offset="1" stop-color="#F7DD43" stop-opacity="0"/>
</linearGradient>
<linearGradient id="paint61_linear_175_1867" x1="677.538" y1="30.5852" x2="677.538" y2="167.023" gradientUnits="userSpaceOnUse">
<stop stop-color="#F7DD43"/>
<stop offset="1" stop-color="#F7DD43" stop-opacity="0"/>
</linearGradient>
<linearGradient id="paint62_linear_175_1867" x1="677.538" y1="30.5852" x2="677.538" y2="167.023" gradientUnits="userSpaceOnUse">
<stop stop-color="#F7DD43"/>
<stop offset="1" stop-color="#F7DD43" stop-opacity="0"/>
</linearGradient>
<linearGradient id="paint63_linear_175_1867" x1="677.538" y1="30.5852" x2="677.538" y2="167.023" gradientUnits="userSpaceOnUse">
<stop stop-color="#F7DD43"/>
<stop offset="1" stop-color="#F7DD43" stop-opacity="0"/>
</linearGradient>
<linearGradient id="paint64_linear_175_1867" x1="677.538" y1="30.5852" x2="677.538" y2="167.023" gradientUnits="userSpaceOnUse">
<stop stop-color="#F7DD43"/>
<stop offset="1" stop-color="#F7DD43" stop-opacity="0"/>
</linearGradient>
<linearGradient id="paint65_linear_175_1867" x1="677.538" y1="30.5852" x2="677.538" y2="167.023" gradientUnits="userSpaceOnUse">
<stop stop-color="#F7DD43"/>
<stop offset="1" stop-color="#F7DD43" stop-opacity="0"/>
</linearGradient>
<linearGradient id="paint66_linear_175_1867" x1="677.538" y1="30.5852" x2="677.538" y2="167.023" gradientUnits="userSpaceOnUse">
<stop stop-color="#F7DD43"/>
<stop offset="1" stop-color="#F7DD43" stop-opacity="0"/>
</linearGradient>
<linearGradient id="paint67_linear_175_1867" x1="677.538" y1="30.5852" x2="677.538" y2="167.023" gradientUnits="userSpaceOnUse">
<stop stop-color="#F7DD43"/>
<stop offset="1" stop-color="#F7DD43" stop-opacity="0"/>
</linearGradient>
<linearGradient id="paint68_linear_175_1867" x1="677.538" y1="30.5852" x2="677.538" y2="167.023" gradientUnits="userSpaceOnUse">
<stop stop-color="#F7DD43"/>
<stop offset="1" stop-color="#F7DD43" stop-opacity="0"/>
</linearGradient>
<linearGradient id="paint69_linear_175_1867" x1="677.538" y1="30.5852" x2="677.538" y2="167.023" gradientUnits="userSpaceOnUse">
<stop stop-color="#F7DD43"/>
<stop offset="1" stop-color="#F7DD43" stop-opacity="0"/>
</linearGradient>
<linearGradient id="paint70_linear_175_1867" x1="677.538" y1="30.5852" x2="677.538" y2="167.023" gradientUnits="userSpaceOnUse">
<stop stop-color="#F7DD43"/>
<stop offset="1" stop-color="#F7DD43" stop-opacity="0"/>
</linearGradient>
<linearGradient id="paint71_linear_175_1867" x1="677.538" y1="30.5852" x2="677.538" y2="167.023" gradientUnits="userSpaceOnUse">
<stop stop-color="#F7DD43"/>
<stop offset="1" stop-color="#F7DD43" stop-opacity="0"/>
</linearGradient>
<linearGradient id="paint72_linear_175_1867" x1="677.538" y1="30.5852" x2="677.538" y2="167.023" gradientUnits="userSpaceOnUse">
<stop stop-color="#F7DD43"/>
<stop offset="1" stop-color="#F7DD43" stop-opacity="0"/>
</linearGradient>
<linearGradient id="paint73_linear_175_1867" x1="677.538" y1="30.5852" x2="677.538" y2="167.023" gradientUnits="userSpaceOnUse">
<stop stop-color="#F7DD43"/>
<stop offset="1" stop-color="#F7DD43" stop-opacity="0"/>
</linearGradient>
<linearGradient id="paint74_linear_175_1867" x1="677.538" y1="30.5852" x2="677.538" y2="167.023" gradientUnits="userSpaceOnUse">
<stop stop-color="#F7DD43"/>
<stop offset="1" stop-color="#F7DD43" stop-opacity="0"/>
</linearGradient>
<linearGradient id="paint75_linear_175_1867" x1="677.538" y1="30.5852" x2="677.538" y2="167.023" gradientUnits="userSpaceOnUse">
<stop stop-color="#F7DD43"/>
<stop offset="1" stop-color="#F7DD43" stop-opacity="0"/>
</linearGradient>
<linearGradient id="paint76_linear_175_1867" x1="677.538" y1="30.5852" x2="677.538" y2="167.023" gradientUnits="userSpaceOnUse">
<stop stop-color="#F7DD43"/>
<stop offset="1" stop-color="#F7DD43" stop-opacity="0"/>
</linearGradient>
<linearGradient id="paint77_linear_175_1867" x1="677.538" y1="30.5852" x2="677.538" y2="167.023" gradientUnits="userSpaceOnUse">
<stop stop-color="#F7DD43"/>
<stop offset="1" stop-color="#F7DD43" stop-opacity="0"/>
</linearGradient>
<linearGradient id="paint78_linear_175_1867" x1="677.538" y1="30.5852" x2="677.538" y2="167.023" gradientUnits="userSpaceOnUse">
<stop stop-color="#F7DD43"/>
<stop offset="1" stop-color="#F7DD43" stop-opacity="0"/>
</linearGradient>
<linearGradient id="paint79_linear_175_1867" x1="677.538" y1="30.5852" x2="677.538" y2="167.023" gradientUnits="userSpaceOnUse">
<stop stop-color="#F7DD43"/>
<stop offset="1" stop-color="#F7DD43" stop-opacity="0"/>
</linearGradient>
<linearGradient id="paint80_linear_175_1867" x1="677.538" y1="30.5852" x2="677.538" y2="167.023" gradientUnits="userSpaceOnUse">
<stop stop-color="#F7DD43"/>
<stop offset="1" stop-color="#F7DD43" stop-opacity="0"/>
</linearGradient>
<linearGradient id="paint81_linear_175_1867" x1="677.538" y1="30.5852" x2="677.538" y2="167.023" gradientUnits="userSpaceOnUse">
<stop stop-color="#F7DD43"/>
<stop offset="1" stop-color="#F7DD43" stop-opacity="0"/>
</linearGradient>
<linearGradient id="paint82_linear_175_1867" x1="677.538" y1="30.5852" x2="677.538" y2="167.023" gradientUnits="userSpaceOnUse">
<stop stop-color="#F7DD43"/>
<stop offset="1" stop-color="#F7DD43" stop-opacity="0"/>
</linearGradient>
<linearGradient id="paint83_linear_175_1867" x1="677.538" y1="30.5852" x2="677.538" y2="167.023" gradientUnits="userSpaceOnUse">
<stop stop-color="#F7DD43"/>
<stop offset="1" stop-color="#F7DD43" stop-opacity="0"/>
</linearGradient>
<linearGradient id="paint84_linear_175_1867" x1="677.538" y1="30.5852" x2="677.538" y2="167.023" gradientUnits="userSpaceOnUse">
<stop stop-color="#F7DD43"/>
<stop offset="1" stop-color="#F7DD43" stop-opacity="0"/>
</linearGradient>
<linearGradient id="paint85_linear_175_1867" x1="677.538" y1="30.5852" x2="677.538" y2="167.023" gradientUnits="userSpaceOnUse">
<stop stop-color="#F7DD43"/>
<stop offset="1" stop-color="#F7DD43" stop-opacity="0"/>
</linearGradient>
<linearGradient id="paint86_linear_175_1867" x1="677.538" y1="30.5852" x2="677.538" y2="167.023" gradientUnits="userSpaceOnUse">
<stop stop-color="#F7DD43"/>
<stop offset="1" stop-color="#F7DD43" stop-opacity="0"/>
</linearGradient>
<linearGradient id="paint87_linear_175_1867" x1="677.538" y1="30.5852" x2="677.538" y2="167.023" gradientUnits="userSpaceOnUse">
<stop stop-color="#F7DD43"/>
<stop offset="1" stop-color="#F7DD43" stop-opacity="0"/>
</linearGradient>
<linearGradient id="paint88_linear_175_1867" x1="677.538" y1="30.5852" x2="677.538" y2="167.023" gradientUnits="userSpaceOnUse">
<stop stop-color="#F7DD43"/>
<stop offset="1" stop-color="#F7DD43" stop-opacity="0"/>
</linearGradient>
<linearGradient id="paint89_linear_175_1867" x1="677.538" y1="30.5852" x2="677.538" y2="167.023" gradientUnits="userSpaceOnUse">
<stop stop-color="#F7DD43"/>
<stop offset="1" stop-color="#F7DD43" stop-opacity="0"/>
</linearGradient>
<linearGradient id="paint90_linear_175_1867" x1="677.538" y1="30.5852" x2="677.538" y2="167.023" gradientUnits="userSpaceOnUse">
<stop stop-color="#F7DD43"/>
<stop offset="1" stop-color="#F7DD43" stop-opacity="0"/>
</linearGradient>
<linearGradient id="paint91_linear_175_1867" x1="677.538" y1="30.5852" x2="677.538" y2="167.023" gradientUnits="userSpaceOnUse">
<stop stop-color="#F7DD43"/>
<stop offset="1" stop-color="#F7DD43" stop-opacity="0"/>
</linearGradient>
<linearGradient id="paint92_linear_175_1867" x1="677.538" y1="30.5852" x2="677.538" y2="167.023" gradientUnits="userSpaceOnUse">
<stop stop-color="#F7DD43"/>
<stop offset="1" stop-color="#F7DD43" stop-opacity="0"/>
</linearGradient>
<linearGradient id="paint93_linear_175_1867" x1="677.538" y1="30.5852" x2="677.538" y2="167.023" gradientUnits="userSpaceOnUse">
<stop stop-color="#F7DD43"/>
<stop offset="1" stop-color="#F7DD43" stop-opacity="0"/>
</linearGradient>
<clipPath id="clip0_175_1867">
<rect width="1024" height="753" fill="white"/>
</clipPath>
</defs>
</svg>
